<mxfile host="app.diagrams.net" modified="2024-02-17T18:41:10.556Z" agent="Mozilla/5.0 (Windows NT 10.0; Win64; x64) AppleWebKit/537.36 (KHTML, like Gecko) Chrome/121.0.0.0 Safari/537.36" etag="Ou7NYgIjyBpDlxd_A3ye" version="23.1.5" type="device">
  <diagram name="Page-1" id="V96OR2ep9DXPKzGtc8qw">
    <mxGraphModel dx="1648" dy="992" grid="1" gridSize="10" guides="1" tooltips="1" connect="1" arrows="1" fold="1" page="1" pageScale="1" pageWidth="1100" pageHeight="850" math="0" shadow="0">
      <root>
        <mxCell id="0" />
        <mxCell id="1" parent="0" />
        <mxCell id="uz5QgHpY2Cw1FlYYKC5Z-1" value="&lt;font style=&quot;font-size: 24px;&quot;&gt;Home Page&lt;/font&gt;" style="rounded=1;whiteSpace=wrap;html=1;fillColor=none;fontColor=#2563EB;strokeColor=#2563EB;" parent="1" vertex="1">
          <mxGeometry x="30" y="180" width="160" height="52" as="geometry" />
        </mxCell>
        <mxCell id="uz5QgHpY2Cw1FlYYKC5Z-31" value="&lt;ul&gt;&lt;li&gt;&lt;font style=&quot;font-size: 18px;&quot;&gt;User see posts from people he follows&lt;/font&gt;&lt;/li&gt;&lt;li&gt;&lt;font size=&quot;3&quot;&gt;Also finds his own posts&lt;/font&gt;&lt;/li&gt;&lt;li&gt;&lt;font size=&quot;3&quot;&gt;Can create new post&lt;/font&gt;&lt;/li&gt;&lt;li&gt;&lt;font size=&quot;3&quot;&gt;Can Like and Comment on posts&lt;/font&gt;&lt;/li&gt;&lt;li&gt;&lt;font size=&quot;3&quot;&gt;Can see Comments of posts&lt;/font&gt;&lt;/li&gt;&lt;/ul&gt;" style="rounded=1;whiteSpace=wrap;html=1;fontColor=#2563EB;labelBackgroundColor=none;labelBorderColor=none;strokeColor=#2563EB;align=left;" parent="1" vertex="1">
          <mxGeometry x="280" y="120" width="560" height="150" as="geometry" />
        </mxCell>
        <mxCell id="FxMdJe1kMajjNA-1XhJt-1" value="&lt;font style=&quot;font-size: 24px;&quot;&gt;Own Profile Page&lt;/font&gt;" style="rounded=1;whiteSpace=wrap;html=1;fillColor=none;fontColor=#2563EB;strokeColor=#2563EB;" vertex="1" parent="1">
          <mxGeometry x="120" y="340" width="160" height="60" as="geometry" />
        </mxCell>
        <mxCell id="FxMdJe1kMajjNA-1XhJt-2" value="&lt;ul&gt;&lt;li&gt;&lt;font style=&quot;font-size: 18px;&quot;&gt;&lt;font style=&quot;&quot;&gt;User sees&amp;nbsp;&lt;/font&gt;his own posts&lt;/font&gt;&lt;/li&gt;&lt;li&gt;&lt;font size=&quot;3&quot;&gt;Can create new post&lt;/font&gt;&lt;/li&gt;&lt;li&gt;&lt;font size=&quot;3&quot;&gt;Can Like and Comment on posts&lt;/font&gt;&lt;/li&gt;&lt;li&gt;&lt;font size=&quot;3&quot;&gt;Can see Comments of posts&lt;/font&gt;&lt;/li&gt;&lt;/ul&gt;" style="rounded=1;whiteSpace=wrap;html=1;fontColor=#2563EB;labelBackgroundColor=none;labelBorderColor=none;strokeColor=#2563EB;align=left;" vertex="1" parent="1">
          <mxGeometry x="370" y="300" width="430" height="140" as="geometry" />
        </mxCell>
        <mxCell id="FxMdJe1kMajjNA-1XhJt-3" value="&lt;font style=&quot;font-size: 24px;&quot;&gt;Other Profile Page&lt;/font&gt;" style="rounded=1;whiteSpace=wrap;html=1;fillColor=none;fontColor=#2563EB;strokeColor=#2563EB;" vertex="1" parent="1">
          <mxGeometry x="130" y="520" width="160" height="60" as="geometry" />
        </mxCell>
        <mxCell id="FxMdJe1kMajjNA-1XhJt-4" value="&lt;ul&gt;&lt;li&gt;&lt;font style=&quot;font-size: 18px;&quot;&gt;&lt;font style=&quot;&quot;&gt;User can see&amp;nbsp;&lt;/font&gt;his this person&#39;s posts&lt;/font&gt;&lt;/li&gt;&lt;li&gt;&lt;font size=&quot;3&quot;&gt;Can &lt;b&gt;Follow&lt;/b&gt; and can &lt;b&gt;send Friend Request&lt;br&gt;&lt;/b&gt;&lt;/font&gt;&lt;/li&gt;&lt;li&gt;&lt;font size=&quot;3&quot;&gt;Can &lt;b&gt;Accept/Reject &lt;/b&gt;friend request from this person.&lt;/font&gt;&lt;/li&gt;&lt;li&gt;&lt;font size=&quot;3&quot;&gt;Can Like and Comment on posts&lt;/font&gt;&lt;/li&gt;&lt;li&gt;&lt;font size=&quot;3&quot;&gt;Can see Comments of posts&lt;/font&gt;&lt;/li&gt;&lt;/ul&gt;" style="rounded=1;whiteSpace=wrap;html=1;fontColor=#2563EB;labelBackgroundColor=none;labelBorderColor=none;strokeColor=#2563EB;align=left;" vertex="1" parent="1">
          <mxGeometry x="380" y="480" width="420" height="140" as="geometry" />
        </mxCell>
        <mxCell id="FxMdJe1kMajjNA-1XhJt-7" value="" style="shape=flexArrow;endArrow=classic;html=1;rounded=0;strokeColor=#FF0080;" edge="1" parent="1">
          <mxGeometry width="50" height="50" relative="1" as="geometry">
            <mxPoint x="200" y="205.5" as="sourcePoint" />
            <mxPoint x="270" y="205.5" as="targetPoint" />
          </mxGeometry>
        </mxCell>
        <mxCell id="FxMdJe1kMajjNA-1XhJt-8" value="" style="shape=flexArrow;endArrow=classic;html=1;rounded=0;strokeColor=#FF0080;" edge="1" parent="1">
          <mxGeometry width="50" height="50" relative="1" as="geometry">
            <mxPoint x="290" y="369.5" as="sourcePoint" />
            <mxPoint x="360" y="369.5" as="targetPoint" />
          </mxGeometry>
        </mxCell>
        <mxCell id="FxMdJe1kMajjNA-1XhJt-9" value="" style="shape=flexArrow;endArrow=classic;html=1;rounded=0;strokeColor=#FF0080;" edge="1" parent="1">
          <mxGeometry width="50" height="50" relative="1" as="geometry">
            <mxPoint x="300" y="544.5" as="sourcePoint" />
            <mxPoint x="370" y="544.5" as="targetPoint" />
          </mxGeometry>
        </mxCell>
        <mxCell id="FxMdJe1kMajjNA-1XhJt-10" value="&lt;font style=&quot;font-size: 24px;&quot;&gt;People Page&lt;/font&gt;" style="rounded=1;whiteSpace=wrap;html=1;fillColor=none;fontColor=#2563EB;strokeColor=#2563EB;" vertex="1" parent="1">
          <mxGeometry x="30" y="730" width="160" height="52" as="geometry" />
        </mxCell>
        <mxCell id="FxMdJe1kMajjNA-1XhJt-11" value="&lt;ul&gt;&lt;li&gt;&lt;font style=&quot;font-size: 18px;&quot;&gt;User can Accept/Reject received friend request&lt;/font&gt;&lt;/li&gt;&lt;li&gt;&lt;font size=&quot;3&quot;&gt;Finds list of his friends, list of people he follows&lt;/font&gt;&lt;/li&gt;&lt;li&gt;&lt;font size=&quot;3&quot;&gt;Find list of people he sent friend request to, Can Cancel those requests.&lt;/font&gt;&lt;/li&gt;&lt;li&gt;&lt;font size=&quot;3&quot;&gt;Can &lt;b&gt;Follow &lt;/b&gt;new people or &lt;b&gt;can send Friend Request&lt;/b&gt;&lt;/font&gt;&lt;/li&gt;&lt;/ul&gt;" style="rounded=1;whiteSpace=wrap;html=1;fontColor=#2563EB;labelBackgroundColor=none;labelBorderColor=none;strokeColor=#2563EB;align=left;" vertex="1" parent="1">
          <mxGeometry x="280" y="670" width="560" height="150" as="geometry" />
        </mxCell>
        <mxCell id="FxMdJe1kMajjNA-1XhJt-12" value="" style="shape=flexArrow;endArrow=classic;html=1;rounded=0;strokeColor=#FF0080;" edge="1" parent="1">
          <mxGeometry width="50" height="50" relative="1" as="geometry">
            <mxPoint x="200" y="755.5" as="sourcePoint" />
            <mxPoint x="270" y="755.5" as="targetPoint" />
          </mxGeometry>
        </mxCell>
      </root>
    </mxGraphModel>
  </diagram>
</mxfile>
